<svg xmlns="http://www.w3.org/2000/svg" width="512" height="512" viewBox="0 0 512 512">
  <rect width="512" height="512" rx="100" fill="#5B9BD5"/>
  <rect x="60" y="80" width="392" height="120" rx="20" fill="#FFFFFF" opacity="0.9"/>
  <rect x="80" y="110" width="352" height="60" rx="10" fill="#2C3E50"/>
  <rect x="60" y="220" width="170" height="170" rx="20" fill="#FFFFFF" opacity="0.9"/>
  <rect x="282" y="220" width="170" height="170" rx="20" fill="#FFFFFF" opacity="0.9"/>
  <rect x="80" y="240" width="130" height="40" rx="10" fill="#E74C3C"/>
  <rect x="80" y="290" width="60" height="40" rx="10" fill="#3498DB"/>
  <rect x="150" y="290" width="60" height="40" rx="10" fill="#3498DB"/>
  <rect x="80" y="340" width="60" height="40" rx="10" fill="#3498DB"/>
  <rect x="150" y="340" width="60" height="40" rx="10" fill="#3498DB"/>
  <rect x="80" y="390" width="60" height="40" rx="10" fill="#3498DB"/>
  <rect x="150" y="390" width="60" height="40" rx="10" fill="#3498DB"/>
  <rect x="302" y="240" width="130" height="40" rx="10" fill="#2ECC71"/>
  <rect x="302" y="290" width="60" height="40" rx="10" fill="#F39C12"/>
  <rect x="372" y="290" width="60" height="40" rx="10" fill="#F39C12"/>
  <rect x="302" y="340" width="60" height="40" rx="10" fill="#F39C12"/>
  <rect x="372" y="340" width="60" height="40" rx="10" fill="#F39C12"/>
  <rect x="302" y="390" width="60" height="40" rx="10" fill="#F39C12"/>
  <rect x="372" y="390" width="60" height="40" rx="10" fill="#F39C12"/>
  <text x="50%" y="155" font-family="Arial, sans-serif" font-size="40" font-weight="bold" text-anchor="middle" fill="#FFFFFF">Calc</text>
</svg>